<?xml version="1.0" encoding="UTF-8" standalone="no"?>
<svg
   xmlns:dc="http://purl.org/dc/elements/1.1/"
   xmlns:cc="http://creativecommons.org/ns#"
   xmlns:rdf="http://www.w3.org/1999/02/22-rdf-syntax-ns#"
   xmlns:svg="http://www.w3.org/2000/svg"
   xmlns="http://www.w3.org/2000/svg"
   xmlns:sodipodi="http://sodipodi.sourceforge.net/DTD/sodipodi-0.dtd"
   xmlns:inkscape="http://www.inkscape.org/namespaces/inkscape"
   id="svg37"
   height="65.015602"
   width="228.411"
   version="1.1"
   sodipodi:docname="x-team-white.svg"
   inkscape:version="0.92.2 5c3e80d, 2017-08-06">
  <sodipodi:namedview
     pagecolor="#ffffff"
     bordercolor="#666666"
     borderopacity="1"
     objecttolerance="10"
     gridtolerance="10"
     guidetolerance="10"
     inkscape:pageopacity="0"
     inkscape:pageshadow="2"
     inkscape:window-width="1058"
     inkscape:window-height="610"
     id="namedview23"
     showgrid="false"
     inkscape:zoom="3.1714784"
     inkscape:cx="175.40022"
     inkscape:cy="-24.866699"
     inkscape:window-x="341"
     inkscape:window-y="307"
     inkscape:window-maximized="0"
     inkscape:current-layer="svg37" />
  <metadata
     id="metadata43">
    <rdf:RDF>
      <cc:Work
         rdf:about="">
        <dc:format>image/svg+xml</dc:format>
        <dc:type
           rdf:resource="http://purl.org/dc/dcmitype/StillImage" />
        <dc:title />
      </cc:Work>
    </rdf:RDF>
  </metadata>
  <defs
     id="defs41" />
  <g
     id="Layer1000"
     transform="translate(-167.549,-355.6246)">
    <path
       id="path2"
       style="fill:#ffffff;fill-rule:evenodd"
       d="m 266.9162,386.5172 v -4.1946 h 19.7814 v 4.1946 z"
       inkscape:connector-curvature="0" />
    <path
       id="path4"
       style="fill:#ffffff;fill-rule:evenodd"
       d="m 304.5729,403.0693 h -4.8024 v -31.6439 h -11.9269 v -4.3195 h 28.6977 v 4.3195 h -11.9684 z"
       inkscape:connector-curvature="0" />
    <path
       id="path6"
       style="fill:#ffffff;fill-rule:evenodd"
       d="m 315.6942,388.0464 h 11.1991 c 0,-3.6948 -1.3994,-7.0073 -5.4584,-7.4705 -6.158,-0.7024 -7.6971,5.2817 -7.7905,10.1818 -0.2568,13.4864 12.988,10.773 13.124,4.2634 h 4.3614 c -0.0625,9.6731 -13.7236,11.0524 -18.9931,5.4349 -2.0866,-2.2161 -3.073,-5.891 -3.0667,-9.5965 0.0131,-7.6808 3.7263,-13.7766 12.086,-13.5042 8.3504,0.2725 11.0153,6.3521 10.3399,13.9371 h -15.9122 z"
       inkscape:connector-curvature="0" />
    <path
       id="path8"
       style="fill:#ffffff;fill-rule:evenodd"
       d="m 355.806,403.0693 h -4.1448 c -0.1664,-0.5244 0.0874,-0.7248 -0.079,-2.739 -2.112,3.4818 -11.0132,4.4678 -14.5527,1.2741 -3.5361,-3.2074 -2.8722,-9.0359 0.8822,-11.7852 3.2857,-2.4191 7.1477,-2.3304 11.0061,-2.3304 l 0.036,3.146 c -2.5243,0 -5.3023,-0.1394 -7.4882,1.3317 -2.2905,1.5367 -2.7232,4.8546 -0.6326,6.7499 3.7303,3.3505 10.0957,0.4287 10.0957,-5.593 0,-2.8908 0,-5.7817 0,-8.6725 0,-5.7568 -11.5535,-5.3956 -11.7628,0.1914 h -4.4362 c 0,-10.2061 20.6901,-10.1582 20.835,0.5576 z"
       inkscape:connector-curvature="0" />
    <path
       id="path10"
       style="fill:#ffffff;fill-rule:evenodd"
       d="m 363.0011,403.0693 h -4.6359 c 0,-8.3281 0.2335,-16.754 -0.1914,-25.0687 h 4.6775 l 0.1498,4.2447 c 3.2854,-5.3139 11.8392,-5.6261 15.8469,-0.1499 4.0509,-6.2172 17.112,-6.4412 17.112,5.6347 v 15.3392 h -4.4861 v -15.9717 c 0,-8.6404 -11.8935,-7.4586 -11.8935,0.441 v 15.5307 h -4.6858 v -15.1395 c 0,-9.6401 -11.8935,-7.4819 -11.8935,1.5111 z"
       inkscape:connector-curvature="0" />
    <path
       id="path12"
       style="fill:#ffffff;fill-rule:evenodd"
       d="m 303.1058,356.2331 c 12.9032,0 24.0276,7.6008 29.1489,18.5683 h -4.221 c -4.8168,-8.8171 -14.1726,-14.799 -24.9279,-14.799 -12.657,0 -23.3776,8.2833 -27.0409,19.7242 h -3.9356 c 3.7829,-13.5517 16.2181,-23.4935 30.9765,-23.4935 z m 0,60.5486 c -15.4382,0 -27.9979,-12.3225 -28.3806,-27.6685 h -3.7693 c 0.3836,17.4278 14.63,31.4378 32.1499,31.4378 10.6766,0 20.5947,-5.2951 26.5562,-14.0171 h -4.724 c -5.2425,6.2689 -13.6657,10.2478 -21.8322,10.2478 z"
       inkscape:connector-curvature="0" />
    <path
       id="path14"
       style="fill:#ffffff;fill-rule:evenodd"
       d="m 272.5964,355.6246 2.3554,2.3553 -30.1527,30.1525 30.1527,30.1527 -2.3554,2.3551 -32.5078,-32.5078 z"
       inkscape:connector-curvature="0" />
    <path
       id="path16"
       style="fill:#ffffff;fill-rule:evenodd"
       d="m 250.7119,373.1419 14.6214,-8.2569 -7.8576,14.8193 z"
       inkscape:connector-curvature="0" />
    <path
       id="path18"
       style="fill:#ffffff;fill-rule:evenodd"
       d="m 197.7218,387.1691 c 0.0119,-0.007 4.2486,-2.6397 6.3613,-2.0484 0.9293,0.2602 1.6382,0.883 2.4174,1.5679 1.4944,1.3129 1.9375,1.9677 3.2944,0.4703 0.8873,-0.979 1.7846,-1.9683 3.5076,-2.1009 1.8673,-0.1435 2.6759,0.6964 3.6107,1.6683 1.5877,1.6498 2.4734,1.5205 3.9895,-0.0922 0.8695,-0.9249 1.6412,-1.7459 3.0136,-1.7933 1.512,-0.0522 2.4127,0.9055 3.4093,1.9649 1.8522,1.9688 2.1757,1.6989 4.0455,-0.2092 0.9104,-0.9289 1.7027,-1.7366 2.8837,-1.8371 1.4063,-0.1194 2.3585,0.8245 3.4041,1.8606 2.141,2.1221 3.0081,1.2272 5.6739,-0.5905 l 1.989,2.9346 c -0.0107,0.007 -3.7646,2.5857 -6.2312,2.4785 -1.6829,-0.0731 -2.8638,-1.2433 -3.9352,-2.3053 -0.4831,-0.4789 -0.7596,-0.5547 -1.2531,-0.0512 -1.1869,1.2111 -2.5962,2.6489 -4.7432,2.6489 -2.0735,0 -3.312,-1.3167 -4.4206,-2.4953 -0.7645,-0.8127 -0.7105,-0.7612 -1.4659,0.0712 -1.1508,1.2703 -2.5401,2.4981 -5.0542,2.0812 -2.0703,-0.3395 -3.0267,-1.3335 -3.8645,-2.204 -0.9144,-0.9502 -1.0518,-0.6197 -1.9302,0.3493 -0.9809,1.0822 -1.9512,2.1525 -3.9068,2.0548 -1.921,-0.0963 -3.2143,-1.2327 -4.3532,-2.2332 -1.7082,-1.5011 -2.4799,-0.4858 -4.5645,0.8284 z"
       inkscape:connector-curvature="0" />
    <path
       id="path20"
       style="fill:#ffffff;fill-rule:evenodd"
       d="m 265.1679,404.5344 -14.6214,-8.257 7.8576,14.8194 z"
       inkscape:connector-curvature="0" />
    <path
       id="path22"
       style="fill:#ffffff;fill-rule:evenodd"
       d="m 169.9043,355.6246 -2.3553,2.3553 30.1526,30.1525 -30.1526,30.1527 2.3553,2.3551 32.5078,-32.5078 z"
       inkscape:connector-curvature="0" />
    <path
       id="path24"
       style="fill:#ffffff;fill-rule:evenodd"
       d="m 191.7888,373.1419 -14.6214,-8.2569 7.8576,14.8193 z"
       inkscape:connector-curvature="0" />
    <path
       id="path26"
       style="fill:#ffffff;fill-rule:evenodd"
       d="m 177.3325,404.5344 14.6214,-8.257 -7.8576,14.8194 z"
       inkscape:connector-curvature="0" />
    <path
       id="path28"
       style="fill:#ffffff;fill-rule:evenodd"
       d="m 318.4014,356.2331 c 12.9032,0 24.0276,7.6008 29.1489,18.5683 h -4.221 c -4.8168,-8.8171 -14.1726,-14.799 -24.9279,-14.799 -1.4218,0 -2.819,0.1054 -4.1846,0.3072 -2.2101,-0.9823 -4.4939,-1.6924 -6.642,-2.2066 3.3832,-1.2096 7.0275,-1.8699 10.8266,-1.8699 z m 0,60.5486 c -1.5229,0 -3.0172,-0.1217 -4.4752,-0.3526 -1.9035,0.9425 -3.9676,1.7426 -6.0153,2.3695 3.2881,1.1343 6.8168,1.7524 10.4905,1.7524 10.6766,0 20.5947,-5.2951 26.5562,-14.0171 h -4.724 c -5.2425,6.2689 -13.6657,10.2478 -21.8322,10.2478 z"
       inkscape:connector-curvature="0" />
    <path
       id="path30"
       style="fill:#ffffff;fill-rule:evenodd"
       d="m 338.3325,359.1701 c 11.2313,0 20.9787,6.3381 25.8697,15.6313 h -3.9431 c -4.5502,-7.3265 -12.6674,-12.2062 -21.9266,-12.2062 -1.292,0 -2.5614,0.0958 -3.8024,0.2792 -2.0083,-0.8926 -4.0836,-1.5379 -6.0354,-2.0052 3.0742,-1.0991 6.3857,-1.6991 9.8378,-1.6991 z m 0,55.0187 c -1.3838,0 -2.7416,-0.1104 -4.0664,-0.3203 -1.7297,0.8564 -3.6053,1.5834 -5.4661,2.1531 2.988,1.0307 6.1944,1.5923 9.5325,1.5923 9.0054,0 17.4161,-4.1464 22.9096,-11.08 h -4.5968 c -4.7789,4.7311 -11.64,7.6549 -18.3128,7.6549 z"
       inkscape:connector-curvature="0" />
    <path
       id="path32"
       style="fill:#ffffff;fill-rule:evenodd"
       d="m 354.9598,361.6013 c 9.835,0 18.4282,5.3009 23.087,13.2001 h -3.7319 c -4.2789,-6.0838 -11.3517,-10.0601 -19.3551,-10.0601 -1.1844,0 -2.3483,0.0879 -3.4859,0.256 -1.8412,-0.8184 -3.7439,-1.41 -5.5333,-1.8383 2.8184,-1.0078 5.8544,-1.5577 9.0192,-1.5577 z m 0,50.4414 c -1.2686,0 -2.5134,-0.1012 -3.728,-0.2937 -1.5859,0.7852 -3.3053,1.4517 -5.0114,1.974 2.7394,0.9449 5.6791,1.4598 8.7394,1.4598 7.5804,0 14.7011,-3.2044 19.7141,-8.6489 h -4.6069 c -4.2289,3.4414 -9.7346,5.5088 -15.1072,5.5088 z"
       inkscape:connector-curvature="0" />
    <path
       id="path34"
       style="fill:#ffffff;fill-rule:evenodd"
       d="m 371.0149,364.9166 c 7.8996,0 14.8852,3.903 19.1391,9.8848 h -3.4957 c -3.7989,-4.3701 -9.3978,-7.1334 -15.6434,-7.1334 -1.0378,0 -2.0577,0.077 -3.0545,0.2243 -1.6134,-0.7171 -3.2806,-1.2355 -4.8486,-1.6108 2.4697,-0.8831 5.1299,-1.3649 7.9031,-1.3649 z m 0,44.1995 c -1.1116,0 -2.2024,-0.0887 -3.2667,-0.2574 -1.3896,0.6879 -2.8962,1.272 -4.3912,1.7297 2.4003,0.8279 4.9763,1.2791 7.6579,1.2791 5.5206,0 10.7629,-1.9398 14.8981,-5.3336 h -5.0246 c -3.0456,1.6462 -6.4897,2.5822 -9.8735,2.5822 z"
       inkscape:connector-curvature="0" />
  </g>
</svg>
